<mxfile host="app.diagrams.net" agent="Mozilla/5.0 (Windows NT 10.0; Win64; x64) AppleWebKit/537.36 (KHTML, like Gecko) Chrome/129.0.0.0 Safari/537.36" version="24.7.17">
  <diagram id="C5RBs43oDa-KdzZeNtuy" name="Page-1">
    <mxGraphModel dx="880" dy="460" grid="1" gridSize="10" guides="1" tooltips="1" connect="1" arrows="1" fold="1" page="1" pageScale="1" pageWidth="827" pageHeight="1169" math="0" shadow="0">
      <root>
        <mxCell id="WIyWlLk6GJQsqaUBKTNV-0" />
        <mxCell id="WIyWlLk6GJQsqaUBKTNV-1" parent="WIyWlLk6GJQsqaUBKTNV-0" />
        <mxCell id="Z1jii7xhzHhHclnNyLrR-37" value="" style="group" vertex="1" connectable="0" parent="WIyWlLk6GJQsqaUBKTNV-1">
          <mxGeometry x="20" y="9" width="770" height="741" as="geometry" />
        </mxCell>
        <mxCell id="Z1jii7xhzHhHclnNyLrR-3" value="" style="endArrow=classic;html=1;rounded=0;exitX=0;exitY=0.5;exitDx=0;exitDy=0;entryX=0;entryY=0.5;entryDx=0;entryDy=0;" edge="1" parent="Z1jii7xhzHhHclnNyLrR-37" target="Z1jii7xhzHhHclnNyLrR-1">
          <mxGeometry width="50" height="50" relative="1" as="geometry">
            <mxPoint x="170" y="91" as="sourcePoint" />
            <mxPoint x="370" y="231" as="targetPoint" />
            <Array as="points">
              <mxPoint x="200" y="91" />
            </Array>
          </mxGeometry>
        </mxCell>
        <mxCell id="WIyWlLk6GJQsqaUBKTNV-2" value="" style="rounded=0;html=1;jettySize=auto;orthogonalLoop=1;fontSize=11;endArrow=block;endFill=0;endSize=8;strokeWidth=1;shadow=0;labelBackgroundColor=none;edgeStyle=orthogonalEdgeStyle;exitX=0.5;exitY=1;exitDx=0;exitDy=0;entryX=0.5;entryY=0;entryDx=0;entryDy=0;" parent="Z1jii7xhzHhHclnNyLrR-37" source="Z1jii7xhzHhHclnNyLrR-1" target="Z1jii7xhzHhHclnNyLrR-5" edge="1">
          <mxGeometry relative="1" as="geometry">
            <Array as="points" />
          </mxGeometry>
        </mxCell>
        <mxCell id="WIyWlLk6GJQsqaUBKTNV-3" value="INICIO" style="rounded=1;whiteSpace=wrap;html=1;fontSize=12;glass=0;strokeWidth=1;shadow=0;" parent="Z1jii7xhzHhHclnNyLrR-37" vertex="1">
          <mxGeometry x="240" width="120" height="40" as="geometry" />
        </mxCell>
        <mxCell id="WIyWlLk6GJQsqaUBKTNV-6" value="¿ERROR CONOCIDO?" style="rhombus;whiteSpace=wrap;html=1;shadow=0;fontFamily=Helvetica;fontSize=12;align=center;strokeWidth=1;spacing=6;spacingTop=-4;" parent="Z1jii7xhzHhHclnNyLrR-37" vertex="1">
          <mxGeometry x="408" y="328" width="120" height="82" as="geometry" />
        </mxCell>
        <mxCell id="Z1jii7xhzHhHclnNyLrR-0" value="Informes de capacidad&lt;div&gt;Informes de cambios&lt;/div&gt;&lt;div&gt;CMD&lt;/div&gt;&lt;div&gt;RFC&lt;/div&gt;&lt;div&gt;SLA&lt;/div&gt;&lt;div&gt;CLS&lt;/div&gt;" style="strokeWidth=2;html=1;shape=mxgraph.flowchart.multi-document;whiteSpace=wrap;" vertex="1" parent="Z1jii7xhzHhHclnNyLrR-37">
          <mxGeometry y="31" width="170" height="140" as="geometry" />
        </mxCell>
        <mxCell id="Z1jii7xhzHhHclnNyLrR-1" value="IDENTIFICACIÓN" style="rounded=1;whiteSpace=wrap;html=1;fontSize=12;glass=0;strokeWidth=1;shadow=0;" vertex="1" parent="Z1jii7xhzHhHclnNyLrR-37">
          <mxGeometry x="240" y="71" width="120" height="40" as="geometry" />
        </mxCell>
        <mxCell id="Z1jii7xhzHhHclnNyLrR-5" value="REGISTRO" style="rounded=1;whiteSpace=wrap;html=1;fontSize=12;glass=0;strokeWidth=1;shadow=0;" vertex="1" parent="Z1jii7xhzHhHclnNyLrR-37">
          <mxGeometry x="240" y="141" width="120" height="40" as="geometry" />
        </mxCell>
        <mxCell id="Z1jii7xhzHhHclnNyLrR-6" value="CLASIFICACIÓN&lt;span style=&quot;color: rgba(0, 0, 0, 0); font-family: monospace; font-size: 0px; text-align: start; text-wrap: nowrap;&quot;&gt;%3CmxGraphModel%3E%3Croot%3E%3CmxCell%20id%3D%220%22%2F%3E%3CmxCell%20id%3D%221%22%20parent%3D%220%22%2F%3E%3CmxCell%20id%3D%222%22%20value%3D%22REGISTRO%22%20style%3D%22rounded%3D1%3BwhiteSpace%3Dwrap%3Bhtml%3D1%3BfontSize%3D12%3Bglass%3D0%3BstrokeWidth%3D1%3Bshadow%3D0%3B%22%20vertex%3D%221%22%20parent%3D%221%22%3E%3CmxGeometry%20x%3D%22260%22%20y%3D%22150%22%20width%3D%22120%22%20height%3D%2240%22%20as%3D%22geometry%22%2F%3E%3C%2FmxCell%3E%3C%2Froot%3E%3C%2FmxGraphModel%3E&lt;/span&gt;&lt;span style=&quot;color: rgba(0, 0, 0, 0); font-family: monospace; font-size: 0px; text-align: start; text-wrap: nowrap;&quot;&gt;%3CmxGraphModel%3E%3Croot%3E%3CmxCell%20id%3D%220%22%2F%3E%3CmxCell%20id%3D%221%22%20parent%3D%220%22%2F%3E%3CmxCell%20id%3D%222%22%20value%3D%22REGISTRO%22%20style%3D%22rounded%3D1%3BwhiteSpace%3Dwrap%3Bhtml%3D1%3BfontSize%3D12%3Bglass%3D0%3BstrokeWidth%3D1%3Bshadow%3D0%3B%22%20vertex%3D%221%22%20parent%3D%221%22%3E%3CmxGeometry%20x%3D%22260%22%20y%3D%22150%22%20width%3D%22120%22%20height%3D%2240%22%20as%3D%22geometry%22%2F%3E%3C%2FmxCell%3E%3C%2Froot%3E%3C%2FmxGraphModel%3E&lt;/span&gt;" style="rounded=1;whiteSpace=wrap;html=1;fontSize=12;glass=0;strokeWidth=1;shadow=0;" vertex="1" parent="Z1jii7xhzHhHclnNyLrR-37">
          <mxGeometry x="240" y="211" width="120" height="40" as="geometry" />
        </mxCell>
        <mxCell id="Z1jii7xhzHhHclnNyLrR-7" value="INVESTIGACIÓN" style="rounded=1;whiteSpace=wrap;html=1;fontSize=12;glass=0;strokeWidth=1;shadow=0;" vertex="1" parent="Z1jii7xhzHhHclnNyLrR-37">
          <mxGeometry x="240" y="280" width="120" height="40" as="geometry" />
        </mxCell>
        <mxCell id="Z1jii7xhzHhHclnNyLrR-8" value="DISAGNOSTICO" style="rounded=1;whiteSpace=wrap;html=1;fontSize=12;glass=0;strokeWidth=1;shadow=0;" vertex="1" parent="Z1jii7xhzHhHclnNyLrR-37">
          <mxGeometry x="240" y="349" width="120" height="40" as="geometry" />
        </mxCell>
        <mxCell id="Z1jii7xhzHhHclnNyLrR-9" value="" style="rounded=0;html=1;jettySize=auto;orthogonalLoop=1;fontSize=11;endArrow=block;endFill=0;endSize=8;strokeWidth=1;shadow=0;labelBackgroundColor=none;edgeStyle=orthogonalEdgeStyle;exitX=0.5;exitY=1;exitDx=0;exitDy=0;entryX=0.5;entryY=0;entryDx=0;entryDy=0;" edge="1" parent="Z1jii7xhzHhHclnNyLrR-37">
          <mxGeometry relative="1" as="geometry">
            <mxPoint x="299.5" y="181" as="sourcePoint" />
            <mxPoint x="299.5" y="211" as="targetPoint" />
            <Array as="points" />
          </mxGeometry>
        </mxCell>
        <mxCell id="Z1jii7xhzHhHclnNyLrR-10" value="" style="rounded=0;html=1;jettySize=auto;orthogonalLoop=1;fontSize=11;endArrow=block;endFill=0;endSize=8;strokeWidth=1;shadow=0;labelBackgroundColor=none;edgeStyle=orthogonalEdgeStyle;exitX=0.5;exitY=1;exitDx=0;exitDy=0;entryX=0.5;entryY=0;entryDx=0;entryDy=0;" edge="1" parent="Z1jii7xhzHhHclnNyLrR-37">
          <mxGeometry relative="1" as="geometry">
            <mxPoint x="299.5" y="251" as="sourcePoint" />
            <mxPoint x="299.5" y="281" as="targetPoint" />
            <Array as="points" />
          </mxGeometry>
        </mxCell>
        <mxCell id="Z1jii7xhzHhHclnNyLrR-11" value="" style="rounded=0;html=1;jettySize=auto;orthogonalLoop=1;fontSize=11;endArrow=block;endFill=0;endSize=8;strokeWidth=1;shadow=0;labelBackgroundColor=none;edgeStyle=orthogonalEdgeStyle;exitX=0.5;exitY=1;exitDx=0;exitDy=0;entryX=0.5;entryY=0;entryDx=0;entryDy=0;" edge="1" parent="Z1jii7xhzHhHclnNyLrR-37">
          <mxGeometry relative="1" as="geometry">
            <mxPoint x="299.5" y="320" as="sourcePoint" />
            <mxPoint x="299.5" y="350" as="targetPoint" />
            <Array as="points" />
          </mxGeometry>
        </mxCell>
        <mxCell id="Z1jii7xhzHhHclnNyLrR-12" value="" style="rounded=0;html=1;jettySize=auto;orthogonalLoop=1;fontSize=11;endArrow=block;endFill=0;endSize=8;strokeWidth=1;shadow=0;labelBackgroundColor=none;edgeStyle=orthogonalEdgeStyle;exitX=0.5;exitY=1;exitDx=0;exitDy=0;entryX=0.5;entryY=0;entryDx=0;entryDy=0;" edge="1" parent="Z1jii7xhzHhHclnNyLrR-37">
          <mxGeometry relative="1" as="geometry">
            <mxPoint x="299.5" y="41" as="sourcePoint" />
            <mxPoint x="299.5" y="71" as="targetPoint" />
            <Array as="points">
              <mxPoint x="299.5" y="71" />
            </Array>
          </mxGeometry>
        </mxCell>
        <object label="GESTION DE ERRORES" id="Z1jii7xhzHhHclnNyLrR-15">
          <mxCell style="verticalLabelPosition=bottom;verticalAlign=top;html=1;shape=process;whiteSpace=wrap;rounded=1;size=0;arcSize=20;movable=1;resizable=1;rotatable=1;deletable=1;editable=1;locked=0;connectable=1;" vertex="1" parent="Z1jii7xhzHhHclnNyLrR-37">
            <mxGeometry x="580" y="328" width="154" height="82" as="geometry" />
          </mxCell>
        </object>
        <mxCell id="Z1jii7xhzHhHclnNyLrR-16" value="" style="edgeStyle=orthogonalEdgeStyle;rounded=0;html=1;jettySize=auto;orthogonalLoop=1;fontSize=11;endArrow=block;endFill=0;endSize=8;strokeWidth=1;shadow=0;labelBackgroundColor=none;" edge="1" parent="Z1jii7xhzHhHclnNyLrR-37">
          <mxGeometry y="10" relative="1" as="geometry">
            <mxPoint as="offset" />
            <mxPoint x="360" y="368.5" as="sourcePoint" />
            <mxPoint x="410" y="368.5" as="targetPoint" />
          </mxGeometry>
        </mxCell>
        <mxCell id="Z1jii7xhzHhHclnNyLrR-17" value="" style="edgeStyle=orthogonalEdgeStyle;rounded=0;html=1;jettySize=auto;orthogonalLoop=1;fontSize=11;endArrow=block;endFill=0;endSize=8;strokeWidth=1;shadow=0;labelBackgroundColor=none;" edge="1" parent="Z1jii7xhzHhHclnNyLrR-37" target="Z1jii7xhzHhHclnNyLrR-15">
          <mxGeometry y="10" relative="1" as="geometry">
            <mxPoint as="offset" />
            <mxPoint x="527" y="368.5" as="sourcePoint" />
            <mxPoint x="577" y="369" as="targetPoint" />
          </mxGeometry>
        </mxCell>
        <mxCell id="Z1jii7xhzHhHclnNyLrR-20" value="SI" style="text;html=1;align=center;verticalAlign=middle;resizable=0;points=[];autosize=1;strokeColor=none;fillColor=none;" vertex="1" parent="Z1jii7xhzHhHclnNyLrR-37">
          <mxGeometry x="535" y="339" width="30" height="30" as="geometry" />
        </mxCell>
        <mxCell id="Z1jii7xhzHhHclnNyLrR-31" style="edgeStyle=orthogonalEdgeStyle;rounded=0;orthogonalLoop=1;jettySize=auto;html=1;entryX=0.5;entryY=0;entryDx=0;entryDy=0;" edge="1" parent="Z1jii7xhzHhHclnNyLrR-37" source="Z1jii7xhzHhHclnNyLrR-21" target="Z1jii7xhzHhHclnNyLrR-32">
          <mxGeometry relative="1" as="geometry">
            <mxPoint x="300" y="561" as="targetPoint" />
          </mxGeometry>
        </mxCell>
        <mxCell id="Z1jii7xhzHhHclnNyLrR-21" value="SOLUCION TEMPORAL" style="rounded=1;whiteSpace=wrap;html=1;fontSize=12;glass=0;strokeWidth=1;shadow=0;arcSize=20;" vertex="1" parent="Z1jii7xhzHhHclnNyLrR-37">
          <mxGeometry x="240" y="461" width="120" height="40" as="geometry" />
        </mxCell>
        <mxCell id="Z1jii7xhzHhHclnNyLrR-25" value="No" style="rounded=0;html=1;jettySize=auto;orthogonalLoop=1;fontSize=11;endArrow=block;endFill=0;endSize=8;strokeWidth=1;shadow=0;labelBackgroundColor=none;edgeStyle=orthogonalEdgeStyle;entryX=0.5;entryY=0;entryDx=0;entryDy=0;" edge="1" parent="Z1jii7xhzHhHclnNyLrR-37" target="Z1jii7xhzHhHclnNyLrR-21">
          <mxGeometry x="0.278" y="-20" relative="1" as="geometry">
            <mxPoint x="1" as="offset" />
            <mxPoint x="467.5" y="410" as="sourcePoint" />
            <mxPoint x="467.5" y="470" as="targetPoint" />
            <Array as="points">
              <mxPoint x="468" y="441" />
              <mxPoint x="300" y="441" />
            </Array>
          </mxGeometry>
        </mxCell>
        <mxCell id="Z1jii7xhzHhHclnNyLrR-26" value="RFC" style="strokeWidth=2;html=1;shape=mxgraph.flowchart.document2;whiteSpace=wrap;size=0.25;" vertex="1" parent="Z1jii7xhzHhHclnNyLrR-37">
          <mxGeometry x="428" y="451" width="100" height="60" as="geometry" />
        </mxCell>
        <mxCell id="Z1jii7xhzHhHclnNyLrR-27" value="" style="edgeStyle=orthogonalEdgeStyle;rounded=0;html=1;jettySize=auto;orthogonalLoop=1;fontSize=11;endArrow=block;endFill=0;endSize=8;strokeWidth=1;shadow=0;labelBackgroundColor=none;entryX=0;entryY=0.5;entryDx=0;entryDy=0;entryPerimeter=0;" edge="1" parent="Z1jii7xhzHhHclnNyLrR-37" target="Z1jii7xhzHhHclnNyLrR-26">
          <mxGeometry y="10" relative="1" as="geometry">
            <mxPoint as="offset" />
            <mxPoint x="360" y="481" as="sourcePoint" />
            <mxPoint x="410" y="477.5" as="targetPoint" />
          </mxGeometry>
        </mxCell>
        <mxCell id="Z1jii7xhzHhHclnNyLrR-28" value="CMD" style="strokeWidth=2;html=1;shape=mxgraph.flowchart.database;whiteSpace=wrap;" vertex="1" parent="Z1jii7xhzHhHclnNyLrR-37">
          <mxGeometry x="630" y="441" width="60" height="60" as="geometry" />
        </mxCell>
        <mxCell id="Z1jii7xhzHhHclnNyLrR-29" value="" style="edgeStyle=orthogonalEdgeStyle;rounded=0;html=1;jettySize=auto;orthogonalLoop=1;fontSize=11;endArrow=block;endFill=0;endSize=8;strokeWidth=1;shadow=0;labelBackgroundColor=none;entryX=-0.033;entryY=0.733;entryDx=0;entryDy=0;entryPerimeter=0;" edge="1" parent="Z1jii7xhzHhHclnNyLrR-37" target="Z1jii7xhzHhHclnNyLrR-28">
          <mxGeometry y="10" relative="1" as="geometry">
            <mxPoint as="offset" />
            <mxPoint x="527" y="484" as="sourcePoint" />
            <mxPoint x="595" y="484" as="targetPoint" />
          </mxGeometry>
        </mxCell>
        <mxCell id="Z1jii7xhzHhHclnNyLrR-32" value="FIN" style="rounded=1;whiteSpace=wrap;html=1;fontSize=12;glass=0;strokeWidth=1;shadow=0;arcSize=20;" vertex="1" parent="Z1jii7xhzHhHclnNyLrR-37">
          <mxGeometry x="240" y="621" width="120" height="40" as="geometry" />
        </mxCell>
        <mxCell id="Z1jii7xhzHhHclnNyLrR-33" value="INFORME DE SOLUCIONES DEFINICTIVAS&lt;div&gt;&lt;br&gt;&lt;/div&gt;&lt;div&gt;INFORME DE SOLUCIONES TEMPORALES&lt;/div&gt;" style="strokeWidth=2;html=1;shape=mxgraph.flowchart.multi-document;whiteSpace=wrap;" vertex="1" parent="Z1jii7xhzHhHclnNyLrR-37">
          <mxGeometry x="410" y="561" width="210" height="180" as="geometry" />
        </mxCell>
        <mxCell id="Z1jii7xhzHhHclnNyLrR-34" value="" style="endArrow=classic;html=1;rounded=0;exitX=1;exitY=0.411;exitDx=0;exitDy=0;exitPerimeter=0;" edge="1" parent="Z1jii7xhzHhHclnNyLrR-37" source="Z1jii7xhzHhHclnNyLrR-33">
          <mxGeometry width="50" height="50" relative="1" as="geometry">
            <mxPoint x="510" y="751" as="sourcePoint" />
            <mxPoint x="710" y="635" as="targetPoint" />
          </mxGeometry>
        </mxCell>
        <mxCell id="Z1jii7xhzHhHclnNyLrR-35" style="edgeStyle=orthogonalEdgeStyle;rounded=0;orthogonalLoop=1;jettySize=auto;html=1;exitX=1;exitY=0.5;exitDx=0;exitDy=0;" edge="1" parent="Z1jii7xhzHhHclnNyLrR-37" source="Z1jii7xhzHhHclnNyLrR-32">
          <mxGeometry relative="1" as="geometry">
            <mxPoint x="410" y="641" as="targetPoint" />
          </mxGeometry>
        </mxCell>
        <mxCell id="Z1jii7xhzHhHclnNyLrR-36" value="CMD" style="strokeWidth=2;html=1;shape=mxgraph.flowchart.database;whiteSpace=wrap;" vertex="1" parent="Z1jii7xhzHhHclnNyLrR-37">
          <mxGeometry x="710" y="601" width="60" height="60" as="geometry" />
        </mxCell>
      </root>
    </mxGraphModel>
  </diagram>
</mxfile>
